<?xml version="1.0" encoding="UTF-8"?>
<svg width="90px" height="62px" viewBox="0 0 90 62" version="1.1" xmlns="http://www.w3.org/2000/svg" xmlns:xlink="http://www.w3.org/1999/xlink">
    <!-- Generator: Sketch 55.2 (78181) - https://sketchapp.com -->
    <title>Twitter__x28_alt_x29_</title>
    <desc>Created with Sketch.</desc>
    <g id="Page-1" stroke="none" stroke-width="1" fill="none" fill-rule="evenodd">
        <path d="M79.803,27.564 C84.858,27.147 88.286,24.849 89.606,21.731 C87.782,22.851 82.122,24.072 78.996,22.909 C78.843,22.175 78.672,21.477 78.504,20.847 C76.122,12.101 67.967,5.055 59.422,5.906 C60.113,5.627 60.814,5.367 61.514,5.134 C62.454,4.797 67.973,3.899 67.104,1.951 C66.371,0.238 59.629,3.246 58.36,3.639 C60.035,3.009 62.807,1.925 63.103,-0.001 C60.536,0.351 58.016,1.565 56.069,3.33 C56.772,2.573 57.305,1.651 57.418,0.658 C50.57,5.033 46.57,13.853 43.333,22.408 C40.791,19.945 38.538,18.005 36.517,16.928 C30.847,13.887 24.068,10.715 13.426,6.764 C13.099,10.285 15.167,14.967 21.126,18.08 C19.835,17.907 17.474,18.293 15.586,18.745 C16.355,22.779 18.866,26.102 25.665,27.709 C22.558,27.914 20.952,28.621 19.497,30.145 C20.912,32.95 24.365,36.252 30.577,35.574 C23.671,38.551 27.761,44.064 33.381,43.241 C23.794,53.143 8.679,52.416 0,44.134 C22.661,75.013 71.921,62.396 79.262,32.653 C84.761,32.7 87.995,30.748 90,28.596 C86.831,29.134 82.239,28.578 79.803,27.564 Z" id="Twitter__x28_alt_x29_" fill="#b1b1b1" fill-rule="nonzero"></path>
    </g>
</svg>