<?xml version="1.0" encoding="UTF-8"?>
<svg width="42px" height="90px" viewBox="0 0 42 90" version="1.1" xmlns="http://www.w3.org/2000/svg" xmlns:xlink="http://www.w3.org/1999/xlink">
    <!-- Generator: Sketch 55.2 (78181) - https://sketchapp.com -->
    <title>Facebook</title>
    <desc>Created with Sketch.</desc>
    <g id="Page-1" stroke="none" stroke-width="1" fill="none" fill-rule="evenodd">
        <path d="M9.078,17.431 C9.078,19.699 9.078,29.822 9.078,29.822 L0,29.822 L0,44.974 L9.078,44.974 L9.078,90 L27.727,90 L27.727,44.975 L40.24,44.975 C40.24,44.975 41.412,37.71 41.98,29.766 C40.351,29.766 27.797,29.766 27.797,29.766 C27.797,29.766 27.797,20.951 27.797,19.406 C27.797,17.858 29.83,15.775 31.84,15.775 C33.846,15.775 38.079,15.775 42,15.775 C42,13.712 42,6.584 42,0.001 C36.765,0.001 30.811,0.001 28.186,0.001 C8.617,-1.77635684e-15 9.078,15.167 9.078,17.431 Z" id="Facebook" fill="#b1b1b1" fill-rule="nonzero"></path>
    </g>
</svg>